<?xml version="1.0" standalone="no"?>
<!DOCTYPE svg PUBLIC "-//W3C//DTD SVG 20010904//EN"
 "http://www.w3.org/TR/2001/REC-SVG-20010904/DTD/svg10.dtd">
<svg version="1.0" xmlns="http://www.w3.org/2000/svg"
 width="1041.000000pt" height="1041.000000pt" viewBox="0 0 1041.000000 1041.000000"
 preserveAspectRatio="xMidYMid meet">
<metadata>
Created by potrace 1.14, written by Peter Selinger 2001-2017
</metadata>
<g transform="translate(0.000000,1041.000000) scale(0.100000,-0.100000)"
fill="#000000" stroke="none">
<path d="M3600 8709 c-219 -15 -435 -55 -720 -133 -102 -28 -328 -108 -425
-151 -157 -69 -397 -188 -470 -232 -133 -81 -166 -102 -239 -157 -226 -167
-406 -391 -478 -594 -54 -154 -64 -215 -61 -408 l1 -142 -41 5 c-23 2 -75 9
-115 14 -119 15 -186 12 -213 -10 -19 -16 -24 -30 -27 -91 -3 -45 0 -76 7 -83
6 -6 11 -18 11 -27 0 -8 16 -48 35 -87 19 -40 35 -76 35 -81 0 -4 9 -25 20
-47 11 -22 20 -45 20 -52 0 -8 13 -39 29 -71 50 -99 82 -186 77 -208 -3 -12
-24 -33 -46 -48 -22 -14 -40 -31 -40 -36 0 -5 -12 -16 -27 -24 -16 -8 -44 -29
-63 -48 -19 -18 -53 -44 -75 -59 -59 -37 -214 -188 -314 -304 -123 -143 -149
-178 -166 -225 -51 -146 30 -230 279 -291 l48 -12 -7 -41 c-29 -186 -34 -391
-41 -1811 -3 -594 -7 -1179 -9 -1300 -1 -121 0 -255 2 -297 l6 -78 97 0 98 0
25 32 c15 18 79 104 143 191 64 87 121 156 128 154 14 -4 56 -88 68 -136 5
-20 10 -40 12 -46 4 -15 19 -88 21 -105 1 -8 5 -32 10 -52 l7 -38 3924 0
c3132 0 3924 3 3925 13 0 6 0 62 -1 124 l-1 111 38 28 c21 16 74 63 118 105
127 123 156 149 164 149 5 0 32 -25 60 -55 29 -30 55 -55 58 -55 3 0 18 -12
32 -27 15 -16 47 -44 71 -63 25 -19 55 -45 68 -57 12 -13 25 -22 28 -22 2 0
31 -16 64 -36 125 -76 253 -111 390 -108 57 2 173 29 223 53 l47 22 0 914 c0
898 0 914 -19 914 -11 0 -23 -4 -26 -10 -3 -5 -20 -10 -38 -10 -17 0 -51 -7
-74 -16 -24 -9 -45 -15 -48 -13 -2 3 -9 51 -14 107 -12 115 -36 232 -56 277
-7 17 -21 50 -30 75 -26 67 -39 93 -52 108 -7 7 -13 19 -13 27 0 7 -7 15 -15
19 -8 3 -15 10 -15 16 0 7 -13 25 -30 42 -16 16 -30 36 -30 44 0 8 -7 14 -15
14 -8 0 -24 9 -35 20 -10 10 -43 31 -72 46 -29 15 -56 31 -59 36 -3 5 -50 20
-105 33 -104 26 -241 33 -288 15 -14 -5 -44 -6 -68 -2 l-42 7 -17 67 c-23 86
-49 145 -85 187 -35 42 -170 143 -239 179 -49 27 -52 27 -245 26 -161 0 -210
-4 -284 -22 -49 -11 -93 -25 -99 -31 -6 -6 -24 -11 -39 -11 -33 0 -37 23 -13
73 8 18 21 50 29 72 37 105 67 179 75 189 4 6 16 36 26 66 10 30 30 82 45 115
29 66 95 213 115 260 7 17 31 68 53 115 73 154 83 218 44 278 -17 26 -62 52
-90 52 -20 0 -119 -61 -162 -100 -14 -12 -36 -30 -50 -39 -14 -9 -34 -24 -45
-33 -37 -31 -110 -88 -185 -145 -89 -68 -87 -66 -126 -98 -36 -28 -49 -31 -61
-12 -4 7 -38 27 -75 45 -38 18 -68 37 -68 42 0 5 18 37 40 71 104 161 159 408
131 589 -22 138 -72 269 -126 331 -45 51 -124 104 -180 122 -27 8 -61 19 -75
23 -14 4 -92 10 -175 13 l-150 6 -7 80 c-18 193 -120 396 -247 490 -128 94
-238 125 -441 125 -186 0 -337 -21 -404 -56 l-50 -26 -21 24 c-11 14 -32 45
-47 69 -34 55 -109 160 -148 208 -16 20 -43 54 -60 76 -59 76 -232 246 -328
323 -313 249 -677 414 -1107 500 -242 49 -468 61 -775 41z"/>
</g>
</svg>
